<svg width="181" height="16" viewBox="0 0 181 16" fill="none" xmlns="http://www.w3.org/2000/svg">
<g clip-path="url(#clip0_9058_55146)">
<path d="M47.3839 2.20174C47.0311 0.809212 42.4395 1.0068 39.7344 1.25144C37.4245 1.45843 34.7711 1.8395 31.9108 2.3617C31.1628 0.964461 30.3489 0.0282655 29.3845 3.84706e-05C28.2931 -0.0281885 27.2769 1.07737 26.1995 3.47666C26.1854 3.50019 26.176 3.52841 26.1619 3.55194C25.0328 3.81068 23.8896 4.08825 22.7323 4.37993C20.9258 4.83626 19.1569 5.32083 17.4539 5.8195C16.3813 4.09766 15.3933 3.21792 14.4007 3.06737C12.8811 2.83685 11.6909 4.25761 10.3172 5.90418C10.2184 6.0218 10.1243 6.13941 10.0255 6.25702C8.9999 7.4943 8.67059 7.92712 7.51799 9.21145C7.16044 9.35729 6.80761 9.50313 6.46888 9.64897C6.40772 9.67249 6.35127 9.70071 6.29011 9.72424C3.79673 10.8016 -0.333822 12.8104 0.0237195 14.2029C0.244831 15.0827 2.15486 15.3273 4.21543 15.3273C5.41978 15.3273 6.67118 15.2426 7.66853 15.1532C10.8394 14.8663 14.6547 14.2594 18.7664 13.3937C19.204 13.8642 19.6838 14.1935 20.2248 14.3064C21.2739 14.6451 22.2195 14.1653 23.1181 12.848C23.231 12.6834 23.3392 12.5093 23.4427 12.3305C23.852 12.2317 24.2613 12.1282 24.6753 12.0247C27.3427 11.3473 29.9208 10.6181 32.3342 9.86537C33.4398 13.0127 34.503 15.9295 36.1966 15.9953C36.2154 15.9953 36.239 15.9953 36.2578 15.9953C37.5139 15.9953 38.8029 14.424 40.3036 11.0556L40.3366 10.9803C40.7223 10.1053 41.8561 7.41903 42.3266 6.19586L42.3548 6.12059C44.7682 5.00092 47.685 3.37787 47.3839 2.19704M22.8499 4.72336C23.8943 4.4552 24.9293 4.20116 25.9502 3.96593C25.5644 4.76099 25.1881 5.65955 24.7929 6.60515V6.61927C23.7485 9.09383 22.5771 11.9024 21.4198 12.0906C21.0905 12.1423 20.747 11.9636 20.3754 11.5402C20.1543 11.2861 19.9661 10.9756 19.8061 10.5899C19.044 8.76452 18.3336 7.29672 17.6609 6.15823C19.331 5.65955 21.0669 5.17969 22.8452 4.72336M10.4724 7.43315C11.8696 5.84303 12.9188 5.12324 13.6809 5.24085C14.2078 5.32083 14.6406 5.8195 15.0546 6.53929C13.154 7.13676 11.3522 7.74835 9.69617 8.36464C9.9361 8.09178 10.2325 7.73894 10.4724 7.43785M5.34451 14.8192C3.7638 14.8192 2.6206 14.6546 2.04665 14.3111C1.83025 14.1794 1.69852 14.0289 1.65618 13.8548C1.44918 13.0174 3.25571 11.6813 6.63824 10.1382C6.91111 10.0112 7.19338 9.88889 7.48505 9.76187C7.82848 9.61133 8.18602 9.46079 8.55298 9.31024C10.5242 8.50107 12.787 7.69189 15.2428 6.90624C15.4686 7.33906 15.6897 7.82362 15.9202 8.33641C16.0943 8.72218 16.2778 9.12206 16.4706 9.52665C17.1199 10.8721 17.7503 12.1706 18.4795 13.0832C13.1116 14.2029 8.40243 14.8192 5.3351 14.8192M24.5389 11.6766C24.2472 11.7519 23.9602 11.8224 23.6685 11.8977C24.1719 10.9521 24.6424 9.83244 25.1269 8.65632C25.9314 6.72277 26.7594 4.71865 27.7661 3.65543C27.8085 3.60839 27.8555 3.57075 27.8979 3.53312C28.0578 3.40139 28.2413 3.32141 28.4154 3.3073C28.5424 3.29319 28.6694 3.3073 28.7964 3.34494C30.1419 3.726 31.2193 6.74629 32.1837 9.48431C29.7891 10.2511 27.211 10.9945 24.5389 11.6766ZM40.0214 9.33847L40.012 9.35729C39.852 9.74305 38.5394 12.3541 37.6456 13.0456C37.2551 13.3514 37.0199 13.2855 36.9446 13.262C36.159 13.0362 35.4251 11.1873 34.6582 9.11265C37.0434 8.31289 39.2216 7.4943 41.0987 6.68513C41.174 6.6522 41.2445 6.61927 41.3198 6.59104L40.0214 9.34317V9.33847ZM42.0396 5.65014C41.922 5.7113 41.7997 5.76775 41.6773 5.82891C41.1316 6.09707 40.5389 6.36993 39.8943 6.6475C38.3089 7.33435 36.493 8.03062 34.5124 8.71277C34.4983 8.67513 34.4842 8.63279 34.4701 8.59516C34.2725 8.06355 34.0749 7.51312 33.8585 6.95799C33.2657 5.41962 32.6918 3.91889 32.0755 2.70513C36.1072 1.98063 39.5933 1.59016 42.0396 1.59016C43.6203 1.59016 44.7635 1.75482 45.3375 2.09824C45.5539 2.22997 45.6856 2.38051 45.7279 2.55458C45.9067 3.27437 44.58 4.37522 42.0396 5.65014Z" fill="#84EB0C"/>
<path d="M160.193 15.8589C158.782 15.8589 157.582 15.666 156.594 15.2756C155.601 14.8851 154.849 14.3064 154.331 13.5349C153.814 12.7634 153.555 11.8036 153.555 10.6605V10.5287H156.698V10.9239C156.698 11.3802 156.792 11.7472 156.98 12.0248C157.168 12.3023 157.516 12.5093 158.015 12.6411C158.518 12.7728 159.243 12.8386 160.193 12.8386C161.03 12.8386 161.67 12.7916 162.117 12.6975C162.564 12.6034 162.87 12.4529 163.039 12.2459C163.209 12.0389 163.289 11.7754 163.289 11.4508C163.289 10.9945 163.147 10.6652 162.86 10.4582C162.573 10.2512 162.075 10.0865 161.364 9.95008L157.427 9.35731C156.589 9.21147 155.874 8.96684 155.281 8.62811C154.689 8.28939 154.232 7.83776 153.912 7.27322C153.593 6.70868 153.433 6.02182 153.433 5.21265C153.433 4.65281 153.546 4.10238 153.776 3.56137C154.007 3.02035 154.374 2.53108 154.877 2.09827C155.38 1.66545 156.039 1.31732 156.857 1.05387C157.671 0.790417 158.673 0.658691 159.864 0.658691C161.303 0.658691 162.484 0.875098 163.411 1.30791C164.338 1.74073 165.034 2.35231 165.495 3.13796C165.956 3.92361 166.187 4.83158 166.187 5.85716V5.98889H163.025V5.6831C163.025 5.21265 162.931 4.83158 162.743 4.5352C162.555 4.24352 162.207 4.02711 161.708 3.88598C161.204 3.74484 160.485 3.67427 159.553 3.67427C158.8 3.67427 158.208 3.72602 157.784 3.82952C157.361 3.93302 157.055 4.08827 156.872 4.29056C156.688 4.49756 156.599 4.76101 156.599 5.08563C156.599 5.36319 156.655 5.59841 156.768 5.78189C156.881 5.96537 157.055 6.1065 157.29 6.21C157.526 6.3135 157.841 6.40288 158.231 6.47345L162.169 7.13679C163.218 7.31556 164.051 7.59783 164.672 7.99771C165.293 8.39289 165.744 8.87745 166.022 9.44199C166.299 10.0065 166.441 10.6275 166.441 11.305C166.441 12.1 166.229 12.8433 165.81 13.5396C165.391 14.2359 164.723 14.8004 163.801 15.2238C162.879 15.6519 161.68 15.8636 160.202 15.8636L160.193 15.8589Z" fill="#EEF2E4"/>
<path d="M62.7534 8.14825L59.465 0.879803H55.2168V15.6378H58.3594V8.14825L58.2324 5.83364H58.4629L59.2768 8.14825L62.2077 14.7581H66.0183L68.9492 8.14825L69.7678 5.83364H69.9983L69.8948 8.14825V15.6378H73.0327V0.879803H68.761L65.5808 8.14825L64.3012 11.6061H64.0707L62.7534 8.14825Z" fill="#EEF2E4"/>
<path fill-rule="evenodd" clip-rule="evenodd" d="M80.2964 0.879803L74.1617 15.6378H77.6807L79.0162 12.3776H86.024L87.3531 15.6378H90.9521L84.7751 0.879803H80.2964ZM84.812 9.40435L83.5001 6.18648L82.6439 3.89539H82.4134L81.5525 6.18648L80.2343 9.40435H84.812Z" fill="#EEF2E4"/>
<path fill-rule="evenodd" clip-rule="evenodd" d="M102.944 14.7581C101.848 15.3461 100.545 15.6378 99.0391 15.6378H92.274V0.879803H99.0391C100.545 0.879803 101.848 1.17148 102.944 1.75954C104.04 2.34761 104.887 3.18971 105.489 4.29056C106.091 5.39142 106.388 6.71338 106.388 8.25646C106.388 9.79953 106.086 11.1215 105.489 12.2223C104.887 13.3232 104.04 14.17 102.944 14.7581ZM101.354 12.3023C100.775 12.5423 100.004 12.6646 99.0391 12.6646H95.4166V3.85305H99.0391C100.004 3.85305 100.775 3.97066 101.354 4.21529C101.932 4.45993 102.356 4.89745 102.629 5.52785C102.901 6.16296 103.038 7.08974 103.038 8.26116C103.038 9.43258 102.901 10.3405 102.629 10.9804C102.36 11.6202 101.932 12.0577 101.354 12.3023Z" fill="#EEF2E4"/>
<path d="M106.74 0.879803L112.56 15.6378H117.043L122.863 0.879803H119.094L114.95 12.2882H114.738L110.532 0.879803H106.74Z" fill="#EEF2E4"/>
<path fill-rule="evenodd" clip-rule="evenodd" d="M149.198 1.3926C148.389 1.04917 147.406 0.875102 146.249 0.875102H138.5V15.6378H141.648V10.2841H143.722C144.268 10.2841 144.701 10.3311 145.03 10.4252C145.355 10.524 145.623 10.6793 145.835 10.9004C146.042 11.1215 146.244 11.4226 146.442 11.8037L148.366 15.6378H152.007L149.979 11.6719C149.711 11.1591 149.424 10.7263 149.118 10.3735C148.813 10.0206 148.342 9.75719 147.717 9.57842V9.39965C148.596 9.31497 149.325 9.09386 149.914 8.75043C150.497 8.4023 150.939 7.94596 151.231 7.37201C151.522 6.79807 151.668 6.11121 151.668 5.30204C151.668 4.36584 151.461 3.56607 151.043 2.90274C150.624 2.23941 150.008 1.73602 149.198 1.3926ZM147.862 7.38613C147.514 7.65899 146.969 7.79542 146.23 7.79542H141.643V3.84834H146.23C146.969 3.84834 147.514 3.98948 147.862 4.27645C148.211 4.56343 148.385 5.07622 148.385 5.81012C148.385 6.59107 148.211 7.11327 147.862 7.38613Z" fill="#EEF2E4"/>
<path d="M124.368 15.6378V0.879806H125.253V0.875102H136.242V3.85305H127.511V6.73691H135.927V9.69133H127.511V12.6646H136.242V15.6378H124.368Z" fill="#EEF2E4"/>
<path d="M168.543 15.6378H180.418V12.6646H171.686V9.69133H180.102V6.73691H171.686V3.85305H180.418V0.875102H169.428V0.879806H168.543V15.6378Z" fill="#EEF2E4"/>
</g>
<defs>
<clipPath id="clip0_9058_55146">
<rect width="180.418" height="16" fill="white"/>
</clipPath>
</defs>
</svg>
